<?xml version="1.0" standalone="no"?><svg xmlns="http://www.w3.org/2000/svg" viewBox="0 0 1440 320"><path fill="#AEECD7" fill-opacity="1" d="M0,288L30,277.3C60,267,120,245,180,224C240,203,300,181,360,197.3C420,213,480,267,540,266.7C600,267,660,213,720,192C780,171,840,181,900,186.7C960,192,1020,192,1080,176C1140,160,1200,128,1260,149.3C1320,171,1380,245,1410,282.7L1440,320L1440,320L1410,320C1380,320,1320,320,1260,320C1200,320,1140,320,1080,320C1020,320,960,320,900,320C840,320,780,320,720,320C660,320,600,320,540,320C480,320,420,320,360,320C300,320,240,320,180,320C120,320,60,320,30,320L0,320Z"></path></svg>